<?xml version="1.0" encoding="UTF-8"?><svg id="Layer_1" xmlns="http://www.w3.org/2000/svg" viewBox="0 0 498.21 95"><defs><style>.cls-1{fill:#416d69;}.cls-2{fill:#61a39e;}</style></defs><path class="cls-1" d="M9.06,38.57c-3.23,0-5.85-2.61-5.85-5.85,0-.38,.04-.74,.12-1.13C4.4,27.38,12.62,0,48.21,0s43.81,27.38,44.88,31.6c.1,.38,.12,.74,.12,1.13,0,3.23-2.61,5.85-5.85,5.85H9.06ZM25.71,19.29c0-1.78-1.44-3.21-3.21-3.21s-3.21,1.44-3.21,3.21,1.44,3.21,3.21,3.21,3.21-1.44,3.21-3.21Zm48.21,3.21c1.78,0,3.21-1.44,3.21-3.21s-1.44-3.21-3.21-3.21-3.21,1.44-3.21,3.21,1.44,3.21,3.21,3.21Zm-22.5-9.64c0-1.78-1.44-3.21-3.21-3.21s-3.21,1.44-3.21,3.21,1.44,3.21,3.21,3.21,3.21-1.44,3.21-3.21ZM0,54.64c0-5.32,4.32-9.64,9.64-9.64H86.79c5.32,0,9.64,4.32,9.64,9.64s-4.32,9.64-9.64,9.64H9.64c-5.32,0-9.64-4.32-9.64-9.64Zm3.21,19.29c0-1.77,1.45-3.21,3.21-3.21H90c1.77,0,3.21,1.45,3.21,3.21v3.21c0,7.09-5.77,12.86-12.86,12.86H16.07c-7.09,0-12.86-5.77-12.86-12.86v-3.21Z"/><g><path class="cls-2" d="M147.82,52.25c-3.56,3.74-8.35,5.61-14.37,5.61h-7.18v21.46h-14.98V18h22.07c6.19,0,11.04,1.78,14.54,5.34,3.5,3.56,5.26,8.38,5.26,14.45s-1.78,10.83-5.34,14.45Zm-16.47-21.38h-5.08v14.1h4.91c4.44,0,6.66-2.39,6.66-7.18,0-2.16-.56-3.82-1.66-4.99-1.11-1.28-2.72-1.93-4.82-1.93Z"/><path class="cls-2" d="M161.49,54c3.27-2.8,7.59-4.21,12.96-4.21,1.81,0,3.59,.18,5.34,.53,.99,.18,2.16,.56,3.5,1.14v-1.66c0-3.33-2.34-4.99-7.01-4.99-3.8,0-7.65,.96-11.56,2.89l-5.43-9.81c5.72-3.8,11.97-5.69,18.75-5.69,7.42,0,12.7,1.78,15.86,5.34,2.69,3.04,4.03,7.48,4.03,13.32v28.47h-13.05l-.79-2.54c-2.45,2.45-5.93,3.68-10.42,3.68-4.79,0-8.76-1.31-11.91-3.94-3.45-2.92-5.17-6.74-5.17-11.48s1.63-8.29,4.91-11.04Zm11.56,14.02c1.17,.82,2.63,1.23,4.38,1.23,4.09,0,6.13-1.58,6.13-4.73,0-1.46-.58-2.69-1.75-3.68-1.17-.82-2.66-1.23-4.47-1.23s-3.27,.44-4.38,1.31c-1.17,.99-1.75,2.19-1.75,3.59s.61,2.63,1.84,3.5Z"/><path class="cls-2" d="M232.79,79.32v-27.42c0-4.38-2.02-6.57-6.04-6.57-1.99,0-3.53,.64-4.64,1.93-1.11,1.11-1.66,2.66-1.66,4.64v27.42h-14.63V33.33h14.28v4.73c.93-1.52,2.36-2.83,4.29-3.94,2.16-1.28,4.58-1.93,7.27-1.93,6.31,0,10.74,2.42,13.32,7.27,.88,1.75,1.55,4.09,2.01,7.01,.29,2.22,.44,4.67,.44,7.36v25.49h-14.63Z"/><path class="cls-2" d="M271.34,23.61v9.72h7.8v11.83h-7.8v16.91c0,3.33,1.9,4.99,5.69,4.99,1.23,0,2.04-.03,2.45-.09v12.53c-1.29,.35-3.15,.53-5.61,.53-11.45,0-17.17-6.22-17.17-18.66v-16.21h-4.47v-11.83h4.47v-9.72h14.63Z"/><path class="cls-2" d="M312.77,32.19v14.89c-1.05-.12-1.84-.18-2.37-.18-6.31,0-9.46,4.03-9.46,12.09v20.32h-14.63V33.33h14.28v6.13c2.39-4.85,6.45-7.27,12.18-7.27Z"/><path class="cls-2" d="M365.15,33.33l-22.78,61.67h-13.84l6.22-17.17-17.17-44.5h15.68l8.15,26.45,8.5-26.45h15.24Z"/><path class="cls-2" d="M407.73,52.25c-3.56,3.74-8.35,5.61-14.37,5.61h-7.18v21.46h-14.98V18h22.07c6.19,0,11.04,1.78,14.54,5.34,3.5,3.56,5.26,8.38,5.26,14.45s-1.78,10.83-5.34,14.45Zm-16.47-21.38h-5.08v14.1h4.91c4.44,0,6.66-2.39,6.66-7.18,0-2.16-.56-3.82-1.66-4.99-1.11-1.28-2.72-1.93-4.82-1.93Z"/><path class="cls-2" d="M445.39,32.19v14.89c-1.05-.12-1.84-.18-2.37-.18-6.31,0-9.46,4.03-9.46,12.09v20.32h-14.63V33.33h14.28v6.13c2.39-4.85,6.45-7.27,12.18-7.27Z"/><path class="cls-2" d="M455.2,39.11c4.67-4.61,10.6-6.92,17.78-6.92s13.4,2.28,18.13,6.83c4.73,4.5,7.1,10.25,7.1,17.26s-2.4,12.7-7.18,17.26c-4.79,4.61-10.81,6.92-18.05,6.92s-13.35-2.28-17.96-6.83c-4.67-4.5-7.01-10.22-7.01-17.17s2.39-12.73,7.18-17.34Zm10.43,25.4c1.93,2.04,4.38,3.07,7.36,3.07s5.55-1.05,7.53-3.15c2.04-2.22,3.07-4.93,3.07-8.15s-1.02-5.98-3.07-8.15c-2.05-2.04-4.56-3.07-7.53-3.07s-5.52,1.05-7.45,3.15c-1.93,2.1-2.89,4.85-2.89,8.23s.99,6.07,2.98,8.06Z"/></g></svg>